<svg width="20" height="20" viewBox="0 0 20 20" fill="none" xmlns="http://www.w3.org/2000/svg">
<path fill-rule="evenodd" clip-rule="evenodd" d="M6.90775 2.54512C7.70769 2.50862 7.96312 2.5 10 2.5C12.0369 2.5 12.2923 2.50863 13.0919 2.54544C13.7141 2.5579 14.3297 2.67578 14.9125 2.89406C15.4108 3.08672 15.8633 3.38135 16.2411 3.75907C16.6188 4.13679 16.9135 4.58927 17.1062 5.0875C17.3245 5.67018 17.4424 6.28566 17.4549 6.90775C17.4914 7.70769 17.5 7.96312 17.5 10C17.5 12.0369 17.4914 12.2923 17.4552 13.0919C17.4427 13.7141 17.3248 14.3297 17.1066 14.9125C16.9139 15.4108 16.6192 15.8633 16.2414 16.2411C15.8636 16.6189 15.4111 16.9136 14.9128 17.1062C14.33 17.3245 13.7144 17.4424 13.0922 17.4549C12.2923 17.4914 12.0369 17.5 10 17.5C7.96312 17.5 7.70769 17.4914 6.90806 17.4552C6.28586 17.4427 5.67028 17.3249 5.0875 17.1066C4.58921 16.9139 4.13667 16.6192 3.7589 16.2414C3.38112 15.8636 3.08645 15.4111 2.89375 14.9128C2.67547 14.33 2.55759 13.7144 2.54512 13.0922C2.50862 12.2923 2.5 12.0369 2.5 10C2.5 7.96312 2.50862 7.70769 2.54512 6.90806C2.55758 6.28586 2.67546 5.67028 2.89375 5.0875C3.08645 4.58921 3.38112 4.13667 3.7589 3.7589C4.13667 3.38112 4.58921 3.08645 5.0875 2.89375C5.67018 2.67549 6.28566 2.55761 6.90775 2.54512ZM14.904 5.99684C14.904 6.4939 14.501 6.89684 14.004 6.89684C13.5069 6.89684 13.104 6.4939 13.104 5.99684C13.104 5.49979 13.5069 5.09684 14.004 5.09684C14.501 5.09684 14.904 5.49979 14.904 5.99684ZM7.86075 6.79804C8.49411 6.37485 9.23873 6.14897 10.0005 6.14897C11.0219 6.14897 12.0015 6.55474 12.7238 7.27701C13.4461 7.99928 13.8518 8.97889 13.8518 10.0003C13.8518 10.7621 13.626 11.5067 13.2028 12.1401C12.7796 12.7734 12.1781 13.267 11.4743 13.5585C10.7706 13.85 9.99619 13.9263 9.2491 13.7777C8.502 13.6291 7.81576 13.2623 7.27713 12.7237C6.73851 12.1851 6.3717 11.4988 6.22309 10.7517C6.07449 10.0046 6.15076 9.23023 6.44226 8.52649C6.73376 7.82274 7.2274 7.22124 7.86075 6.79804ZM8.61154 12.079C9.02266 12.3537 9.50601 12.5003 10.0005 12.5003C10.6635 12.5003 11.2994 12.2369 11.7682 11.7681C12.2371 11.2993 12.5005 10.6634 12.5005 10.0003C12.5005 9.50589 12.3538 9.02254 12.0791 8.61142C11.8044 8.20029 11.414 7.87986 10.9572 7.69064C10.5004 7.50142 9.99769 7.45192 9.51274 7.54838C9.02779 7.64484 8.58233 7.88294 8.2327 8.23257C7.88307 8.58221 7.64497 9.02766 7.5485 9.51262C7.45204 9.99757 7.50155 10.5002 7.69077 10.9571C7.87999 11.4139 8.20042 11.8043 8.61154 12.079Z" fill="white"/>
</svg>
