<svg width="11" height="16" viewBox="0 0 11 16" fill="none" xmlns="http://www.w3.org/2000/svg">
    <path fill-rule="evenodd" clip-rule="evenodd" d="M5.3335 0.75C4.59182 0.75 3.86679 0.969934 3.25011 1.38199C2.63342 1.79404 2.15278 2.37971 1.86895 3.06494C1.58512 3.75016 1.51086 4.50416 1.65555 5.23159C1.80025 5.95902 2.1574 6.6272 2.68185 7.15165C3.20629 7.6761 3.87448 8.03325 4.60191 8.17794C5.32934 8.32264 6.08334 8.24838 6.76856 7.96455C7.45378 7.68072 8.03945 7.20007 8.45151 6.58339C8.86356 5.9667 9.0835 5.24168 9.0835 4.5C9.0835 3.50544 8.68841 2.55161 7.98515 1.84835C7.28189 1.14509 6.32806 0.75 5.3335 0.75ZM3.74251 2.90901C4.16446 2.48705 4.73676 2.25 5.3335 2.25C5.7785 2.25 6.21352 2.38196 6.58353 2.62919C6.95354 2.87643 7.24193 3.22783 7.41223 3.63896C7.58252 4.0501 7.62708 4.5025 7.54026 4.93895C7.45345 5.37541 7.23915 5.77632 6.92449 6.09099C6.60982 6.40566 6.20891 6.61995 5.77245 6.70677C5.33599 6.79358 4.88359 6.74903 4.47246 6.57873C4.06132 6.40843 3.70992 6.12004 3.46269 5.75003C3.21546 5.38002 3.0835 4.94501 3.0835 4.5C3.0835 3.90326 3.32055 3.33097 3.74251 2.90901ZM3.8335 8.75C2.83893 8.75 1.88511 9.14509 1.18185 9.84835C0.478585 10.5516 0.0834961 11.5054 0.0834961 12.5V15.25H0.749837H1.5835H9.0835H9.9165H10.5835V12.5C10.5835 11.5054 10.1884 10.5516 9.48515 9.84835C8.78189 9.14509 7.82806 8.75 6.8335 8.75H3.8335ZM9.0835 13.75V12.5C9.0835 12.2045 9.0253 11.9119 8.91223 11.639C8.79915 11.366 8.63342 11.1179 8.42449 10.909C8.21556 10.7001 7.96752 10.5343 7.69453 10.4213C7.42155 10.3082 7.12897 10.25 6.8335 10.25H3.8335C3.23676 10.25 2.66446 10.4871 2.24251 10.909C1.82055 11.331 1.5835 11.9033 1.5835 12.5V13.75H9.0835Z" fill="white"/>
</svg>
