<svg width="15" height="15" viewBox="0 0 24 24" fill="none" xmlns="http://www.w3.org/2000/svg">
<path fill-rule="evenodd" clip-rule="evenodd" d="M12 9.00391C13.6569 9.00391 15 10.3471 15 12.0039C15 13.6608 13.6569 15.0039 12 15.0039C10.3431 15.0039 9 13.6608 9 12.0039C9.00207 10.3479 10.344 9.00597 12 9.00391ZM12 7.50391C9.51472 7.50391 7.5 9.51863 7.5 12.0039C7.5 14.4892 9.51472 16.5039 12 16.5039C14.4853 16.5039 16.5 14.4892 16.5 12.0039C16.5 9.51863 14.4853 7.50391 12 7.50391ZM4.0455 5.10991L5.1075 4.04941L7.73625 6.67891L6.675 7.73941L4.0455 5.10991ZM1.5 11.2539H5.25V12.7539H1.5V11.2539ZM4.0455 18.8987L6.675 16.2692L7.7355 17.3297L5.10675 19.9592L4.0455 18.8987ZM11.25 18.7539H12.75V22.5039H11.25V18.7539ZM16.2653 17.3289L17.3258 16.2684L19.9552 18.8979L18.8948 19.9584L16.2653 17.3289ZM18.75 11.2539H22.5V12.7539H18.75V11.2539ZM16.2653 6.67816L18.8948 4.04866L19.9552 5.10916L17.3258 7.73866L16.2653 6.67816ZM11.25 1.50391H12.75V5.25391H11.25V1.50391Z" fill="black"/>
</svg>
